<svg xmlns="http://www.w3.org/2000/svg" width="40" height="40" viewBox="0 0 40 40">
    <defs>
        <style>
            .cls-1{fill:none}
        </style>
    </defs>
    <g id="cart" transform="translate(-248.152 -139.585)">
        <path id="사각형_249" d="M0 0h40v40H0z" class="cls-1" data-name="사각형 249" transform="translate(248.152 139.585)"/>
        <path id="패스_245" d="M388.865 157.948a1.083 1.083 0 0 0-.86-.425h-7.4v-2.59a6.832 6.832 0 1 0-13.649 0v2.59h-7.33a1.082 1.082 0 0 0-1.045 1.364l3.806 14.088a1.083 1.083 0 0 0 1.045.8h20.731a1.082 1.082 0 0 0 1.044-.8l3.84-14.088a1.083 1.083 0 0 0-.182-.939zm-19.741-3.015a4.671 4.671 0 1 1 9.319 0v2.59h-9.319zm14.215 16.678h-19.076l-3.221-11.924h25.546z" data-name="패스 245" transform="translate(-105.395 -1.19)"/>
    </g>
</svg>
