<svg xmlns="http://www.w3.org/2000/svg" width="40" height="40" viewBox="0 0 40 40">
    <defs>
        <style>
            .cls-1{fill:none}
        </style>
    </defs>
    <g id="login" transform="translate(-189.589 -33.396)">
        <path id="사각형_247" d="M0 0h40v40H0z" class="cls-1" data-name="사각형 247" transform="translate(189.589 33.396)"/>
        <path id="패스_598" d="M221.889 39.4h-14.842a1.223 1.223 0 1 0 0 2.447h13.618V63.95h-13.618a1.224 1.224 0 0 0 0 2.448h14.842a1.223 1.223 0 0 0 1.224-1.224V40.619a1.223 1.223 0 0 0-1.224-1.219z" data-name="패스 598" transform="translate(-1)"/>
        <path id="패스_599" d="M204.337 58a1.224 1.224 0 1 0 1.731 1.731l5.966-5.966a1.316 1.316 0 0 0 .154-.188c.019-.029.032-.061.049-.091a1.052 1.052 0 0 0 .063-.12 1.089 1.089 0 0 0 .038-.123.971.971 0 0 0 .031-.1 1.212 1.212 0 0 0 0-.48.971.971 0 0 0-.031-.105 1.089 1.089 0 0 0-.038-.123 1.143 1.143 0 0 0-.063-.12c-.017-.03-.03-.061-.049-.09a1.214 1.214 0 0 0-.154-.188l-5.966-5.967a1.224 1.224 0 1 0-1.731 1.731l3.878 3.878h-16.4a1.224 1.224 0 0 0 0 2.448h16.4z" data-name="패스 599" transform="translate(-1)"/>
    </g>
</svg>
