<svg xmlns="http://www.w3.org/2000/svg" width="214" height="26.021" viewBox="0 0 214 26.021">
    <defs>
        <style>
            .cls-1{fill:none}.cls-2{clip-path:url(#clip-path)}
        </style>
        <clipPath id="clip-path">
            <path id="사각형_1" d="M0 0h214v26.022H0z" class="cls-1" data-name="사각형 1"/>
        </clipPath>
    </defs>
    <g id="LOGO" transform="translate(-863 -136)">
        <g id="Vector_Smart_Object" data-name="Vector Smart Object" transform="translate(863 136)">
            <g id="그룹_2" data-name="그룹 2">
                <path id="패스_1" d="M24.232 0L0 24.819h5.041l19.191-19.94 19.333 19.9h4.9z" data-name="패스 1"/>
                <path id="패스_2" d="M260 31.118L278.564 19.5 295.1 29.924h6.114l-19.573-12.349L299.6 6.4h-6.134l-29.377 18.341V6.4h-4.069z" data-name="패스 2" transform="translate(-207.365 -5.104)"/>
                <g id="그룹_1" class="cls-2" data-name="그룹 1">
                    <path id="패스_3" d="M521.3 6h5.162c4.11 0 6.518 2.369 6.518 5.891a5.726 5.726 0 0 1-2.753 5.162 5.649 5.649 0 0 1 4.879 5.911c0 4.13-3.037 6.62-7.328 6.62H521.3zm1.559 10.669h3.741a4.556 4.556 0 0 0 3.219-.992 4.324 4.324 0 0 0 1.559-3.6 5 5 0 0 0-1.6-3.684 6.146 6.146 0 0 0-3.907-.972h-3.016zm0 11.5h3.968c1.6 0 3.543 0 5.122-1.417a4.571 4.571 0 0 0 1.518-3.6c0-2.126-.749-3.563-2.51-4.393a10.444 10.444 0 0 0-4.413-.668h-3.684z" data-name="패스 3" transform="translate(-415.768 -4.785)"/>
                    <path id="패스_4" d="M623.916 7.417h-9.758v8.543h9.555v1.417h-9.555v10.79h9.758v1.417H612.6V6h11.317z" data-name="패스 4" transform="translate(-488.585 -4.785)"/>
                    <path id="패스_5" d="M697.3 19.039h-10.042l-3.158 7.754h-1.7L692.34 2.5l9.8 24.293h-1.7zm-.567-1.417L692.3 6.448l-4.494 11.195z" data-name="패스 5" transform="translate(-544.254 -1.994)"/>
                    <path id="패스_6" d="M794.318 6v14.738c0 2.227.1 3.684.992 5.1a6.873 6.873 0 0 0 10.972 0c.891-1.417.992-2.875.992-5.1V6h1.559v14.738c0 2.591-.142 4.271-1.336 6.053a8.61 8.61 0 0 1-13.361 0c-1.194-1.761-1.336-3.462-1.336-6.053V6z" data-name="패스 6" transform="translate(-632.305 -4.785)"/>
                    <path id="패스_7" d="M897.772 7.417v22.167h-1.559V7.417H890.1V6h13.786v1.417z" data-name="패스 7" transform="translate(-709.907 -4.785)"/>
                    <path id="패스_8" d="M979.633 19.5L971.9 6h1.761l6.8 11.9L987.386 6h1.761l-7.956 13.5v10.084h-1.559z" data-name="패스 8" transform="translate(-775.148 -4.785)"/>
                </g>
            </g>
        </g>
    </g>
</svg>
