<svg height="490pt" viewBox="-42 0 490 490.66667" width="490pt" xmlns="http://www.w3.org/2000/svg"><path d="m310.328125 0c-58.304687 0-117.332031 43.96875-117.332031 128 0 5.886719 4.777344 10.667969 10.664062 10.667969 58.304688 0 117.335938-43.96875 117.335938-128 0-5.890625-4.78125-10.667969-10.667969-10.667969zm0 0" fill="#4caf50"/><path d="m288.3125 106.667969c-21.78125 0-39.125 7.101562-54.421875 13.332031-11.347656 4.652344-21.164063 8.660156-30.230469 8.660156h-.660156c-9.066406 0-18.878906-4.007812-30.230469-8.660156-15.316406-6.230469-32.660156-13.332031-54.441406-13.332031-70.59375 0-117.996094 64.296875-117.996094 160 0 90.195312 67.480469 224 160.664063 224 17 0 24.703125-3.949219 30.867187-7.105469 3.90625-2.003906 6.316407-3.242188 11.457031-3.519531 5.140626.277343 7.550782 1.515625 11.457032 3.519531 6.183594 3.15625 13.867187 7.105469 30.867187 7.105469 93.207031 0 160.664063-133.804688 160.664063-224 .019531-95.703125-47.40625-160-117.996094-160zm0 0" fill="#f44336"/><path d="m245.644531 490.667969c-17 0-24.703125-3.949219-30.867187-7.105469-3.90625-2.003906-6.316406-3.242188-11.457032-3.519531-5.140624.277343-7.550781 1.515625-11.457031 3.519531-6.1875 3.15625-13.867187 7.105469-30.867187 7.105469-93.207032 0-160.664063-133.804688-160.664063-224 0-95.703125 47.425781-160 117.996094-160 21.78125 0 39.125 7.101562 54.421875 13.332031 11.347656 4.652344 21.160156 8.660156 30.230469 8.660156h.660156c9.066406 0 18.878906-4.007812 30.230469-8.660156 15.316406-6.230469 32.660156-13.332031 54.441406-13.332031 70.589844 0 117.996094 64.296875 117.996094 160 .019531 90.195312-67.457032 224-160.664063 224zm-42.195312-32c10.324219.402343 16.277343 3.433593 21.054687 5.886719 4.972656 2.558593 9.300782 4.757812 21.140625 4.757812 73.730469 0 139.328125-113.324219 139.328125-202.667969 0-82.941406-38.847656-138.664062-96.660156-138.664062-17.601562 0-32.214844 5.972656-46.359375 11.753906-12.882813 5.269531-25.042969 10.238281-38.3125 10.238281h-.660156c-13.269531 0-25.429688-4.96875-38.316407-10.238281-14.121093-5.761719-28.734374-11.734375-46.335937-11.734375-57.8125 0-96.660156 55.722656-96.660156 138.667969 0 89.34375 65.597656 202.664062 139.328125 202.664062 11.859375 0 16.167968-2.21875 21.140625-4.757812 4.523437-2.324219 10.089843-5.160157 19.414062-5.800781.597657-.105469 1.257813-.128907 1.898438-.105469zm0 0"/><path d="m53.644531 277.332031c-5.886719 0-10.664062-4.777343-10.664062-10.664062 0-58.410157 23.292969-117.335938 75.328125-117.335938 5.886718 0 10.664062 4.78125 10.664062 10.667969s-4.777344 10.667969-10.664062 10.667969c-37.3125 0-53.996094 48.210937-53.996094 96 0 5.886719-4.757812 10.664062-10.667969 10.664062zm0 0"/><path d="m203.660156 149.996094c-5.886718 0-10.664062-4.78125-10.664062-10.667969 0-58.070313-20.738282-90.859375-39.019532-119.808594l-2.007812-3.15625c-3.15625-4.992187-1.660156-11.585937 3.328125-14.71875 4.972656-3.136719 11.585937-1.644531 14.699219 3.324219l2.007812 3.160156c18.859375 29.824219 42.304688 66.941406 42.304688 131.199219.019531 5.910156-4.757813 10.667969-10.648438 10.667969zm0 0"/><path d="m203.660156 138.667969c-5.886718 0-10.664062-4.78125-10.664062-10.667969 0-84.03125 59.027344-128 117.332031-128 5.886719 0 10.667969 4.777344 10.667969 10.667969 0 84.03125-59.03125 128-117.335938 128zm95.597656-116.695313c-40.320312 4.652344-80.066406 34.796875-84.523437 94.71875 40.296875-4.648437 80.0625-34.792968 84.523437-94.71875zm0 0"/></svg>